<?xml version="1.0" encoding="UTF-8" standalone="no"?>
<!-- Created with Inkscape (http://www.inkscape.org/) -->
<svg
   xmlns:dc="http://purl.org/dc/elements/1.1/"
   xmlns:cc="http://web.resource.org/cc/"
   xmlns:rdf="http://www.w3.org/1999/02/22-rdf-syntax-ns#"
   xmlns:svg="http://www.w3.org/2000/svg"
   xmlns="http://www.w3.org/2000/svg"
   xmlns:sodipodi="http://sodipodi.sourceforge.net/DTD/sodipodi-0.dtd"
   xmlns:inkscape="http://www.inkscape.org/namespaces/inkscape"
   width="297mm"
   height="210mm"
   id="svg2160"
   sodipodi:version="0.32"
   inkscape:version="0.45"
   sodipodi:docbase="E:\_chesshighlight\src\pieces"
   sodipodi:docname="eozine.fr.svg"
   inkscape:output_extension="org.inkscape.output.svg.inkscape"
   sodipodi:modified="true">
  <defs
     id="defs2162" />
  <sodipodi:namedview
     inkscape:document-units="mm"
     pagecolor="#ffffff"
     bordercolor="#666666"
     borderopacity="1.0"
     inkscape:pageopacity="0.0"
     inkscape:pageshadow="2"
     inkscape:zoom="0.83053969"
     inkscape:cx="470.56515"
     inkscape:cy="372.04724"
     inkscape:current-layer="layer1"
     id="namedview2164"
     inkscape:window-width="1152"
     inkscape:window-height="813"
     inkscape:window-x="-4"
     inkscape:window-y="-4" />
  <metadata
     id="metadata2166">
    <rdf:RDF>
      <cc:Work
         rdf:about="">
        <dc:format>image/svg+xml</dc:format>
        <dc:type
           rdf:resource="http://purl.org/dc/dcmitype/StillImage" />
      </cc:Work>
    </rdf:RDF>
  </metadata>
  <g
     inkscape:label="Layer 1"
     inkscape:groupmode="layer"
     id="layer1">
    <path
       style="opacity:1;fill:#000000;fill-opacity:1;fill-rule:nonzero;stroke:#000000;stroke-width:3.27047253;stroke-miterlimit:4;stroke-dasharray:none;stroke-dashoffset:0;stroke-opacity:1"
       id="path2169"
       d="M 218.91288,277.74609 C 214.86869,276.47922 210.67488,275.44673 206.56651,274.28806 C 203.07371,273.09169 199.40702,272.58148 195.79028,271.91609 C 193.02862,271.46028 190.21872,271.61209 187.43377,271.59189 C 183.62185,271.72398 179.8807,271.46432 176.117,270.86715 C 174.88076,270.7464 173.649,270.58347 172.415,270.44163 C 169.1387,271.49474 165.83459,272.6394 162.55368,273.75155 C 162.1894,273.99171 161.8629,274.28476 161.5175,274.55137 C 159.18639,276.66337 156.75462,278.7261 154.33987,280.68755 C 151.85899,283.19169 149.99324,286.25465 147.96813,289.1173 C 145.9499,291.28725 144.77541,293.86181 143.45688,296.47186 C 141.77964,299.57008 140.68271,302.92019 139.49279,306.21457 C 138.96353,309.74116 138.05388,313.20585 137.27761,316.68943 C 135.69485,321.7658 135.20026,327.08573 134.56059,332.33854 C 134.25914,334.09225 135.06879,335.01616 135.2898,336.18065 C 135.55472,337.93142 136.44354,341.24395 136.62771,342.0448 C 136.89602,342.15202 138.99402,347.6123 139.83804,349.84369 C 140.14145,350.78712 140.67565,351.64005 141.09445,352.53824 C 137.83372,349.64445 139.9421,351.18505 142.77603,353.09073 C 146.60935,355.5553 149.59361,358.9889 152.53183,362.38522 C 148.92451,358.96242 146.47859,358.6974 153.27139,360.64592 C 156.22275,361.98724 159.18285,363.55939 161.89614,365.00957 C 162.89873,365.26308 161.41255,364.9783 163.3169,365.10145 C 165.19048,365.4867 167.18961,365.14512 168.79987,365.11063 C 169.82325,364.68615 171.78794,363.91876 173.21824,363.36397 C 176.09277,361.74056 179.00512,360.23565 181.95597,358.75312 C 185.55348,357.45083 189.15488,356.18501 192.7573,354.9255 C 194.15654,354.30943 195.75264,353.02614 197.19114,352.0816 C 199.70908,350.04251 198.82145,350.51766 202.01643,348.06807 C 206.5683,343.73362 198.13883,353.1894 203.40079,346.23968 C 206.88571,340.27594 212.33623,338.03346 218.42195,335.71529 C 218.30198,335.72099 218.18202,335.72669 218.06206,335.73239 L 229.40105,369.86801 C 228.65345,370.0822 227.90586,370.29639 227.15826,370.51057 C 228.36774,369.79173 235.42295,364.70751 232.08754,367.3463 C 230.11472,370.08726 227.30111,374.28467 223.92815,376.42784 C 222.65826,377.36727 221.18991,378.60469 217.63806,380.90755 C 213.49279,383.37203 209.31259,385.90392 204.84369,387.74304 C 201.92055,388.7146 198.99321,389.86867 196.12712,390.86461 C 193.26033,392.41311 190.30264,394.00609 187.35401,395.46717 C 182.81767,397.36517 178.20188,399.117 173.33169,400.01531 C 169.01489,400.38241 164.72038,400.7192 160.383,400.41362 C 155.48729,399.8413 150.54968,399.27047 146.12977,396.89117 C 144.91506,396.24765 139.3677,393.69639 140.92548,393.86064 C 138.19548,393.07804 129.12137,390.29135 125.91536,385.80172 C 123.88929,383.39885 123.68333,382.77339 123.34729,382.47439 C 119.27043,380.21877 115.18498,377.86769 112.43016,373.9769 C 109.98021,370.3669 107.67482,366.74661 107.15951,362.30833 C 105.6973,359.34721 104.50737,356.81879 102.9626,353.3759 C 102.0093,349.97904 101.11886,346.60158 100.76016,343.0786 C 99.855052,337.54322 99.342122,332.16948 100.91973,326.65326 C 102.12619,321.2971 103.444,315.96 103.83692,310.46133 C 104.63626,305.41403 105.17598,300.31793 106.70961,295.41638 C 108.52968,290.74986 110.22389,286.03472 112.32845,281.48299 C 114.62293,277.04079 116.83401,272.47058 119.81008,268.4395 C 122.70794,264.95066 125.6132,261.4648 128.4065,257.89093 C 131.2381,254.82079 134.03133,251.81976 137.21318,249.21654 C 141.59622,245.48433 145.78553,242.01803 151.56321,240.70639 C 155.15473,239.46628 158.76522,238.28478 162.33885,236.99051 C 168.26347,235.58424 174.14191,235.35047 180.18331,236.11999 C 183.00953,236.365 185.20719,236.64725 188.26384,236.53978 C 192.88288,236.82946 197.49218,237.12099 202.05645,237.94748 C 206.84787,239.03947 211.67556,239.94144 216.40355,241.29427 C 219.20019,241.75092 221.98008,242.44897 224.8523,242.10957 L 218.91288,277.74609 z " />
    <path
       style="opacity:1;fill:#000000;fill-opacity:1;fill-rule:nonzero;stroke:#000000;stroke-width:3.27047253;stroke-miterlimit:4;stroke-dasharray:none;stroke-dashoffset:0;stroke-opacity:1"
       id="path2171"
       d="M 195.39379,333.52972 C 192.20216,332.45204 188.98468,332.81707 185.7552,332.91286 C 179.79523,334.18739 174.02704,335.93754 168.0448,337.17382 C 161.72295,338.83011 155.23345,339.5929 148.76895,340.43695 C 146.25636,341.23118 143.98114,342.64099 141.64214,343.84936 C 137.42126,346.17177 132.79206,346.97319 128.09404,347.5927 C 126.07576,347.66881 124.05964,347.79528 122.04163,347.87804 C 122.63296,348.74604 114.49676,349.29546 111.70389,349.52574 C 108.09192,349.30749 104.76435,348.12592 101.27262,347.35425 L 108.88966,313.11487 C 109.65731,313.22522 117.38322,314.23604 112.60373,313.83024 C 113.85568,313.44421 115.0858,312.97855 116.35958,312.67215 C 119.26719,312.40649 122.17393,312.00872 125.10373,312.06426 C 125.90553,312.03175 126.65944,312.5451 127.45327,311.96901 C 133.08276,309.80193 138.76275,307.58298 144.84655,307.14668 C 150.36282,306.71699 155.89197,306.31712 161.29629,305.03985 C 167.27857,303.39365 173.23094,301.52468 179.2655,300.06641 C 184.61539,298.95181 190.02222,298.29439 195.39379,297.38534 L 195.39379,333.52972 z " />
    <path
       style="opacity:1;fill:#000000;fill-opacity:1;fill-rule:nonzero;stroke:#000000;stroke-width:3.27047253;stroke-miterlimit:4;stroke-dasharray:none;stroke-dashoffset:0;stroke-opacity:1"
       id="path2173"
       d="M 332.55755,310.16809 C 327.875,307.95628 322.83081,307.6758 317.76399,307.30598 C 313.96359,307.01995 310.2483,306.57257 306.51667,305.83 C 304.06645,305.30268 299.45484,305.25773 298.21163,305.18916 C 298.75794,306.37409 298.23268,303.41019 298.19709,306.4182 C 295.53037,308.42571 293.41655,310.97108 291.21063,313.42114 C 289.32002,315.70549 287.61467,318.14378 285.92623,320.55527 C 283.9071,323.53915 281.35877,326.96237 279.39275,329.57466 C 278.6699,330.56575 279.05216,331.8996 278.88737,333.02455 C 278.9502,335.40679 278.85302,337.78806 278.82896,340.17051 C 278.89008,343.31565 278.90703,340.56699 279.57253,343.94696 C 281.06043,346.955 282.49036,349.94235 283.62463,353.152 C 283.87285,354.14834 284.32108,355.08389 284.66931,356.04983 C 286.41748,358.07687 288.04785,360.83449 289.40513,362.8651 C 289.64198,363.12192 290.00532,363.22287 290.30542,363.40175 C 286.68043,361.50658 292.63224,363.84398 293.39812,364.09462 C 294.38683,364.48083 295.45363,364.62542 296.48139,364.89082 C 294.40194,365.10592 298.32084,364.20911 299.21162,364.00394 C 302.17299,362.64068 305.10885,361.1609 307.92319,359.59005 C 304.82202,361.20299 308.82751,356.60671 309.28664,355.91697 C 311.31041,353.51467 313.50875,351.19935 315.6428,348.92909 C 316.48037,347.15165 317.58341,345.50981 318.64155,343.85417 C 317.71328,345.62982 319.07353,341.63784 319.19899,340.99414 C 319.21124,339.64314 319.33192,338.29694 319.40093,336.95091 C 319.44388,334.28275 319.43857,331.61123 319.45362,328.94508 C 319.25571,331.90882 319.82478,331.6163 320.16839,333.08602 C 318.44535,331.01968 318.75622,331.56261 316.42906,329.19383 C 315.06478,327.57448 313.44095,325.67064 311.71081,323.61407 C 314.26364,325.87485 308.87171,321.91831 308.34261,321.5684 C 306.34081,320.17686 307.06496,321.04493 304.29493,319.91002 C 305.76325,320.62767 303.67181,319.84221 301.79455,319.63791 L 310.31161,284.71175 C 312.93401,285.33341 315.5839,285.9049 318.1121,286.8385 C 321.23384,288.25171 324.63688,289.7321 327.60151,291.79522 C 331.09659,294.15878 334.59262,296.52027 337.68012,299.42253 C 340.94998,303.02883 340.20819,302.23854 342.72241,304.82332 C 343.5874,305.71992 346.73172,308.85453 347.9519,310.80686 C 351.65301,316.41879 354.94439,321.81068 354.82456,328.87122 C 354.85268,331.7282 354.87118,334.58958 354.87524,337.44975 C 354.81591,341.10716 354.86412,344.78303 353.98509,348.37633 C 352.85985,352.68053 351.69699,356.99317 349.67498,360.98742 C 347.6913,364.26521 345.71463,367.04371 343.51483,370.15753 C 341.54068,372.59238 339.65584,375.14649 337.38984,377.31852 C 334.2728,381.62011 330.72449,386.27073 325.90272,389.15333 C 321.59149,391.49676 317.23839,393.74597 312.80708,395.85616 C 307.56393,398.03773 302.4547,400.3093 296.6356,400.20835 C 291.64558,399.96748 286.72445,399.28587 281.98804,397.6135 C 278.32354,396.63792 274.53667,395.91305 271.31427,393.67842 C 267.53405,391.02712 264.03739,388.21903 261.16603,384.53708 C 259.35473,381.9414 257.94934,379.8099 257.07833,377.76557 C 254.13166,373.67518 251.16388,369.65723 250.15859,364.57238 C 249.2338,361.78301 248.2756,358.94188 247.18172,356.16024 C 245.20238,350.98836 243.24057,345.86844 243.652,340.20405 C 243.65607,336.46784 243.49007,332.70994 244.1237,329.00515 C 245.21323,322.88545 246.3264,316.71765 249.55044,311.28431 C 251.80019,308.22159 254.23414,305.33053 256.43694,302.29059 C 258.98585,298.43331 261.51759,294.55144 264.61433,291.10022 C 267.61837,287.65574 270.75233,284.40278 274.25867,281.45816 C 280.12923,275.92207 286.26735,271.72656 294.60321,271.0434 C 300.20387,270.56628 305.83878,270.79241 311.40518,271.6667 C 315.26676,272.06095 319.16645,272.31385 322.91529,273.45884 C 327.49893,274.35474 332.36026,275.44882 336.99037,274.70553 L 332.55755,310.16809 z " />
    <path
       style="opacity:1;fill:#000000;fill-opacity:1;fill-rule:nonzero;stroke:#000000;stroke-width:3.27047253;stroke-miterlimit:4;stroke-dasharray:none;stroke-dashoffset:0;stroke-opacity:1"
       id="path2175"
       d="M 381.66589,263.77068 C 382.77524,265.85645 385.13417,265.71413 387.03068,266.42155 C 389.58624,266.43507 392.08853,266.57887 394.63744,266.81551 C 398.5743,267.74367 402.52543,268.16954 406.54905,268.49586 C 411.90456,268.46481 417.23739,268.51754 422.59144,268.70768 C 425.90096,269.02884 429.22259,269.04736 432.5425,269.13914 C 435.55791,269.24783 438.69343,269.16591 441.59675,268.9692 C 444.79091,268.51505 447.99402,268.15129 451.19949,267.79031 C 454.36405,267.77276 457.5275,267.66891 460.69093,267.58757 C 483.93532,267.61385 479.93144,279.80693 475.26486,301.2863 C 471.80724,302.25541 468.61943,304.16023 465.49108,305.9287 C 463.82442,307.36093 462.61727,309.16255 461.35653,310.92782 C 458.97652,313.88195 457.58933,317.51874 455.98288,320.92786 C 453.16864,326.21321 450.73403,331.67154 448.48202,337.2142 C 446.38005,343.00322 444.17211,348.76388 441.78178,354.45322 C 440.29268,359.57254 437.97178,364.35782 435.80606,369.20447 C 434.60416,372.16692 433.25173,375.07759 432.11923,378.08284 C 431.48719,380.58279 428.53155,386.02974 428.12802,386.80584 C 426.63647,389.72893 425.32741,392.7009 423.89527,395.64896 C 422.30209,399.63053 419.30983,402.61353 416.48244,405.71224 C 414.10666,408.22168 411.33127,410.2216 408.52117,412.21746 C 405.65924,414.34202 402.65515,415.97882 399.34998,417.73817 C 397.08996,418.29371 394.86715,418.99095 392.62573,419.61733 C 404.86611,415.22675 384.93198,422.2246 381.34926,422.45282 C 359.86469,418.52188 359.14525,396.00114 376.57232,385.71351 C 379.99378,384.72635 381.65538,383.5291 383.41971,382.62077 C 388.85653,379.73832 394.69402,379.26288 400.68977,378.89081 C 404.31491,378.25665 408.00712,377.64945 411.66963,377.05785 C 416.75091,376.81855 421.79626,376.03532 426.81859,375.36518 C 430.66722,374.46435 434.62894,374.25431 438.55602,373.91563 C 443.15301,373.71815 447.65439,374.56362 452.15155,375.36901 C 454.24584,376.26524 456.52498,376.51616 458.69426,377.0008 C 459.42495,377.03288 460.15703,377.00898 460.88841,377.01307 C 459.86985,377.39357 458.74019,377.35094 457.66608,377.51987 C 461.11512,374.83919 464.90967,373.09673 468.88393,371.37896 C 474.72518,369.40505 480.24661,370.45802 486.04321,371.69431 C 487.53443,371.92014 488.98536,372.33775 490.45643,372.65947 L 480.27199,406.56499 C 479.81639,406.41259 487.46446,405.78507 478.90521,406.1078 C 479.40646,405.85485 479.85003,405.40206 480.40897,405.34893 C 480.13121,405.44198 479.84601,405.51522 479.57568,405.62806 C 475.37586,409.0482 471.17175,412.15237 465.51334,412.58129 C 461.51042,412.71936 457.51086,412.91168 453.53024,412.25977 C 450.65914,411.70285 446.85485,411.06465 444.6443,409.89021 C 443.36288,409.68887 440.32384,409.2687 440.32664,408.94843 C 437.14142,409.09328 433.96138,409.228 430.78994,409.62311 C 426.33079,409.86043 421.78735,409.68874 417.45547,410.91605 C 412.50631,411.64336 407.59862,412.58662 402.68825,413.56043 C 402.39646,413.57422 399.38774,414.26859 400.39427,413.66882 C 397.52273,415.21071 394.61514,416.61711 391.64251,417.9421 C 402.89752,409.97733 402.16393,388.10694 383.69459,386.09776 C 378.26553,386.6474 365.64521,393.09971 378.4567,386.4337 C 380.73441,385.74262 387.60736,383.87481 385.39951,384.76416 C 386.20252,384.24499 386.97054,383.66723 387.80853,383.20665 C 389.12205,382.14556 390.36546,381.32667 390.84466,380.87616 C 394.46482,377.29251 390.32108,382.25214 392.62418,379.11459 C 393.691,376.84033 394.85046,374.59643 395.83182,372.27994 C 397.43915,369.17321 397.82469,368.21866 399.48588,365.57047 C 401.09478,361.6602 402.89505,357.86379 404.93159,354.15494 C 407.2082,350.04264 409.3991,345.88774 411.25927,341.5685 C 413.73302,335.92294 415.98246,330.18471 417.78935,324.27449 C 420.44363,318.56266 423.45629,313.01612 425.33721,306.97184 C 427.7533,301.30203 430.12583,295.57655 433.55325,290.41533 C 437.62862,285.29597 442.02613,280.4742 447.34624,276.59029 C 449.8253,274.92118 452.87973,273.47185 454.39173,270.87217 C 447.99219,302.99753 447.36666,295.89718 460.77195,303.10957 C 458.30995,303.06895 455.8352,302.93629 453.38135,303.19601 C 450.45886,303.33054 447.529,303.35843 444.63572,303.87965 C 440.37692,303.93184 436.11402,304.02321 431.85245,303.90743 C 427.58332,303.76895 423.30591,303.66336 419.06288,303.11369 C 414.60682,302.3623 410.17612,301.76421 405.62809,301.98038 C 400.58286,302.00987 395.51779,302.20837 390.48723,301.80973 C 386.50753,301.45057 382.49252,301.05803 378.63615,299.84238 C 372.89212,298.07806 367.17619,296.27064 361.7488,293.64631 L 381.66589,263.77068 z " />
    <path
       style="opacity:1;fill:#000000;fill-opacity:1;fill-rule:nonzero;stroke:#000000;stroke-width:3.27047253;stroke-miterlimit:4;stroke-dasharray:none;stroke-dashoffset:0;stroke-opacity:1"
       id="path2177"
       d="M 386.79818,316.75982 C 391.76434,316.96135 396.75533,316.66017 401.72326,316.49533 C 405.98353,316.39284 410.15899,317.16052 414.34786,317.80173 C 417.31135,318.62914 420.30449,319.06076 423.34455,319.43752 C 426.49086,319.67742 429.65455,319.70061 432.81178,319.83366 C 436.65428,320.03611 440.49495,319.80652 444.33238,319.62259 C 448.05948,319.22846 451.77908,319.87455 455.47612,320.30827 C 457.70873,320.40677 459.88435,320.98879 462.07525,321.38443 L 454.86573,356.21855 C 453.07738,355.83958 452.66515,355.55258 451.0178,355.40315 C 448.40578,355.00711 446.88365,354.66738 444.37814,354.65025 C 440.4548,354.47271 436.5298,354.26414 432.60145,354.44312 C 428.29209,354.54047 424.00774,354.47499 419.7094,354.09103 C 415.7129,353.56268 411.72605,352.95938 407.72471,352.44608 C 405.35412,351.9908 403.06333,351.35422 400.65127,351.09979 C 397.99883,351.18726 395.14909,350.94161 392.7376,352.39635 L 386.79818,316.75982 z " />
    <path
       style="opacity:1;fill:#000000;fill-opacity:1;fill-rule:nonzero;stroke:#000000;stroke-width:3.27047253;stroke-miterlimit:4;stroke-dasharray:none;stroke-dashoffset:0;stroke-opacity:1"
       id="path2179"
       d="M 542.107,281.58626 C 545.03895,288.49415 545.34907,295.94389 545.95901,303.30821 C 546.13546,309.44435 546.67766,315.55064 547.06521,321.6766 C 548.24883,327.86427 548.82814,334.12509 549.92599,340.32444 C 550.81949,345.95708 551.17437,351.65048 551.72974,357.32112 C 551.91099,360.89437 552.12901,364.46549 552.31855,368.0383 C 552.34362,371.40563 552.4482,369.01509 552.95752,372.85251 C 553.48176,376.60897 553.31046,380.41596 553.24574,384.19565 C 553.56961,388.20115 553.15555,392.18302 552.74742,396.15967 C 552.77435,397.52541 553.00384,400.42536 552.51886,392.08108 C 550.77909,380.30515 535.274,379.39149 533.44278,379.19931 C 526.63207,382.40514 536.65719,376.75508 537.78366,376.08684 C 539.78848,375.17058 541.70614,374.07451 543.66768,373.06891 L 562.13688,403.85967 C 559.46022,405.14775 556.78521,406.2519 554.08963,407.41779 C 551.56949,409.28524 548.36256,412.0107 545.09707,413.02696 C 532.30717,416.45765 522.7478,414.75014 516.98674,401.10638 C 516.59956,396.73595 516.25377,392.82154 517.4073,388.57998 C 517.79894,386.89211 518.96084,387.49733 518.31447,384.67031 C 518.14311,382.47973 518.07843,380.27341 517.68095,378.10539 C 517.18071,374.75471 516.58416,371.38699 516.89486,367.98554 C 517.0734,364.77414 517.3054,361.56255 517.33906,358.34571 C 517.5177,353.79712 517.47655,349.25362 516.92751,344.72324 C 516.28621,338.24434 515.61679,331.77684 514.67096,325.332 C 513.69911,318.95197 512.95831,312.57268 512.78023,306.11206 C 512.60477,304.7604 512.34484,298.75664 511.08493,300.1995 L 542.107,281.58626 z " />
    <path
       style="opacity:1;fill:#000000;fill-opacity:1;fill-rule:nonzero;stroke:#ffffff;stroke-width:1.5;stroke-miterlimit:4;stroke-dasharray:none;stroke-dashoffset:0;stroke-opacity:1"
       id="path2181"
       d="M 532.12866,205.62968 C 537.1639,210.20472 540.26955,215.72846 543.06626,221.81346 C 545.63489,229.22262 545.37544,235.86678 542.61753,243.235 C 537.80917,252.34465 528.88869,254.38341 519.64514,255.70891 C 512.26395,256.85248 506.28236,253.87724 500.22528,250.15777 C 494.30514,246.09096 491.47741,240.20349 489.00327,233.75971 C 487.87603,228.64308 487.87859,223.52901 488.63936,218.37891 C 489.91421,211.9113 492.93194,206.33978 497.0802,201.30352 C 501.05912,196.87227 506.40185,195.81537 511.84913,194.53905 L 517.2422,229.63869 C 519.21927,228.6563 521.43114,228.08147 522.7594,226.10404 C 524.27119,222.30295 523.53188,226.01832 523.75721,223.59524 C 522.68266,225.47799 523.99339,224.16086 523.35267,224.30404 C 522.42076,223.30753 522.06437,221.57195 520.47993,221.23215 C 519.40451,221.12802 517.7272,219.74029 516.31052,220.82841 C 514.18021,222.85981 512.34014,225.18487 510.54894,227.52076 C 510.49782,227.9043 508.09631,236.83376 509.87857,233.32634 C 509.72202,233.58696 512.94809,235.68571 509.59901,233.79175 L 532.12866,205.62968 z " />
    <path
       style="opacity:1;fill:#000000;fill-opacity:1;fill-rule:nonzero;stroke:#000000;stroke-width:3.27047253;stroke-miterlimit:4;stroke-dasharray:none;stroke-dashoffset:0;stroke-opacity:1"
       id="path2183"
       d="M 604.29596,277.80371 C 603.73265,281.08744 604.60046,284.25635 605.03174,287.46005 C 605.79314,293.36891 607.25758,299.19279 608.43825,305.05305 C 609.43995,313.50799 610.78463,321.94017 612.02543,330.3767 C 612.21211,339.55949 613.15585,348.73039 614.37935,357.82962 C 615.14398,364.22231 616.13505,370.58033 616.99802,376.961 C 617.6971,381.82561 617.88003,386.7065 618.14692,391.60394 C 618.22197,395.1592 618.34816,398.70994 618.3966,402.26559 C 618.24506,405.51067 617.8755,408.74214 617.56485,411.97462 C 615.22561,426.34978 616.50804,418.1735 591.18888,428.74217 L 607.02033,395.34305 C 598.76192,398.93326 590.50352,402.52346 582.24511,406.11367 C 582.24234,406.16121 581.94825,408.33908 582.09292,408.72599 C 582.35618,406.77658 582.53937,403.45983 583.24808,402.21397 C 583.30306,398.80813 583.44555,395.40652 583.47547,392.00039 C 583.59851,387.96235 583.62774,383.92449 583.55799,379.8849 C 583.23949,373.43552 582.74096,366.9926 582.71081,360.53246 C 582.37342,351.66668 582.3703,342.69639 580.51122,333.9865 C 579.92963,326.26397 578.28102,318.60553 575.99013,311.21638 C 574.82411,305.74246 573.29664,300.35824 571.21539,295.1429 C 570.44134,291.05742 570.05943,286.81715 568.72352,282.88549 L 604.29596,277.80371 z " />
    <path
       style="opacity:1;fill:#000000;fill-opacity:1;fill-rule:nonzero;stroke:#000000;stroke-width:3.27047253;stroke-miterlimit:4;stroke-dasharray:none;stroke-dashoffset:0;stroke-opacity:1"
       id="path2185"
       d="M 586.20747,303.12653 C 589.49011,302.01535 592.5356,300.0096 595.66445,298.42832 C 598.96016,296.78736 601.94185,294.61001 605.0893,292.70315 C 608.73183,290.74237 612.54412,289.13244 616.36633,287.56381 C 623.51647,285.07607 613.42296,289.07351 620.23793,285.57801 C 625.67553,282.53576 631.45455,282.21145 637.51718,282.65104 C 641.50459,282.81476 645.14059,284.02905 648.81324,285.45584 C 654.82903,287.84981 658.47198,292.4278 662.35623,297.2821 C 663.21049,299.40947 665.40341,300.75613 667.08097,302.27681 C 670.62544,306.35628 673.05569,311.17075 675.4147,315.98201 C 678.41482,320.70868 680.10377,325.87993 680.9985,331.37795 C 682.43006,335.28301 683.59509,339.27877 684.72887,343.27943 C 685.06046,348.63163 685.31826,353.98563 685.63572,359.33808 C 685.4913,363.01649 685.6892,366.70435 685.79693,370.3798 C 686.09767,374.23649 685.6358,378.04519 685.16606,381.8672 C 685.00735,384.47914 684.32954,387.01965 683.85622,389.57884 C 683.73387,390.61384 683.74723,391.65754 683.69277,392.69627 L 647.98629,391.95928 C 648.08348,389.16651 648.0713,386.36139 648.55026,383.59641 C 649.16132,380.63609 649.79839,378.47021 650.22442,377.12868 C 650.4807,374.7952 650.8673,372.79184 650.70604,370.28436 C 650.83136,366.74219 651.06012,363.18473 650.89797,359.63977 C 650.96203,356.49881 651.41719,353.19704 650.52151,350.16415 C 649.87384,345.76773 648.63488,341.60625 647.09116,337.40052 C 646.39203,335.70302 645.8608,333.19628 644.04722,331.32685 C 643.62752,330.52631 640.50424,325.27886 642.09445,327.02354 C 638.92588,323.52262 635.49708,320.2505 632.47324,316.60766 C 634.0165,317.72276 633.0061,317.84229 635.20122,318.5788 C 633.18182,318.03496 638.12355,318.68957 633.55393,318.13517 C 634.80524,317.7399 636.19756,317.64884 637.30784,316.94936 C 634.26765,318.66007 631.06874,320.63146 627.55145,321.11903 C 625.75747,321.87518 623.76855,322.58108 621.99033,323.52496 C 618.71496,325.10104 615.58716,326.9059 612.52636,328.90362 C 609.81067,330.44221 606.99699,331.85303 604.82071,334.1486 L 586.20747,303.12653 z " />
    <path
       style="opacity:1;fill:#000000;fill-opacity:1;fill-rule:nonzero;stroke:#000000;stroke-width:3.27047253;stroke-miterlimit:4;stroke-dasharray:none;stroke-dashoffset:0;stroke-opacity:1"
       id="path3158"
       d="M 819.46167,279.91019 C 815.41748,278.64332 811.22367,277.61083 807.1153,276.45216 C 803.6225,275.25579 799.95581,274.74558 796.33907,274.08019 C 793.57741,273.62438 790.76751,273.77619 787.98256,273.75599 C 784.17064,273.88808 780.42949,273.62842 776.66579,273.03125 C 775.42955,272.9105 774.19779,272.74757 772.96379,272.60573 C 769.68749,273.65884 766.38338,274.8035 763.10247,275.91565 C 762.73819,276.15581 762.41169,276.44886 762.06629,276.71547 C 759.73518,278.82747 757.30341,280.8902 754.88866,282.85165 C 752.40778,285.35579 750.54203,288.41875 748.51692,291.2814 C 746.49869,293.45135 745.3242,296.02591 744.00567,298.63596 C 742.32843,301.73418 741.2315,305.08429 740.04158,308.37867 C 739.51232,311.90526 738.60267,315.36995 737.8264,318.85353 C 736.24364,323.9299 735.74905,329.24983 735.10938,334.50264 C 734.80793,336.25635 735.61758,337.18026 735.83859,338.34475 C 736.10351,340.09552 736.99233,343.40805 737.1765,344.2089 C 737.44481,344.31612 739.54281,349.7764 740.38683,352.00779 C 740.69024,352.95122 741.22444,353.80415 741.64324,354.70234 C 738.38251,351.80855 740.49089,353.34915 743.32482,355.25483 C 747.15814,357.7194 750.1424,361.153 753.08062,364.54932 C 749.4733,361.12652 747.02738,360.8615 753.82018,362.81002 C 756.77154,364.15134 759.73164,365.72349 762.44493,367.17367 C 763.44752,367.42718 761.96134,367.1424 763.86569,367.26555 C 765.73927,367.6508 767.7384,367.30922 769.34866,367.27473 C 770.37204,366.85025 772.33673,366.08286 773.76703,365.52807 C 776.64156,363.90466 779.55391,362.39975 782.50476,360.91722 C 786.10227,359.61493 789.70367,358.34911 793.30609,357.0896 C 794.70533,356.47353 796.30143,355.19024 797.73993,354.2457 C 800.25787,352.20661 799.37024,352.68176 802.56522,350.23217 C 807.11709,345.89772 798.68762,355.3535 803.94958,348.40378 C 807.4345,342.44004 812.88502,340.19756 818.97074,337.87939 C 818.85077,337.88509 818.73081,337.89079 818.61085,337.89649 L 829.94984,372.03211 C 829.20224,372.2463 828.45465,372.46049 827.70705,372.67467 C 828.91653,371.95583 835.97174,366.87161 832.63633,369.5104 C 830.66351,372.25136 827.8499,376.44877 824.47694,378.59194 C 823.20705,379.53137 821.7387,380.76879 818.18685,383.07165 C 814.04158,385.53613 809.86138,388.06802 805.39248,389.90714 C 802.46934,390.8787 799.542,392.03277 796.67591,393.02871 C 793.80912,394.57721 790.85143,396.17019 787.9028,397.63127 C 783.36646,399.52927 778.75067,401.2811 773.88048,402.17941 C 769.56368,402.54651 765.26917,402.8833 760.93179,402.57772 C 756.03608,402.0054 751.09847,401.43457 746.67856,399.05527 C 745.46385,398.41175 739.91649,395.86049 741.47427,396.02474 C 738.74427,395.24214 729.67016,392.45545 726.46415,387.96582 C 724.43808,385.56295 724.23212,384.93749 723.89608,384.63849 C 719.81922,382.38287 715.73377,380.03179 712.97895,376.141 C 710.529,372.531 708.22361,368.91071 707.7083,364.47243 C 706.24609,361.51131 705.05616,358.98289 703.51139,355.54 C 702.55809,352.14314 701.66765,348.76568 701.30895,345.2427 C 700.40384,339.70732 699.89091,334.33358 701.46852,328.81736 C 702.67498,323.4612 703.99279,318.1241 704.38571,312.62543 C 705.18505,307.57813 705.72477,302.48203 707.2584,297.58048 C 709.07847,292.91396 710.77268,288.19882 712.87724,283.64709 C 715.17172,279.20489 717.3828,274.63468 720.35887,270.6036 C 723.25673,267.11476 726.16199,263.6289 728.95529,260.05503 C 731.78689,256.98489 734.58012,253.98386 737.76197,251.38064 C 742.14501,247.64843 746.33432,244.18212 752.112,242.87048 C 755.70352,241.63038 759.31401,240.44888 762.88764,239.15462 C 768.81226,237.74834 774.6907,237.51458 780.7321,238.28409 C 783.55832,238.5291 785.75598,238.81135 788.81263,238.70388 C 793.43167,238.99356 798.04097,239.2851 802.60524,240.11158 C 807.39666,241.20357 812.22435,242.10554 816.95234,243.45836 C 819.74898,243.91502 822.52887,244.61307 825.40109,244.27367 L 819.46167,279.91019 z " />
    <path
       style="opacity:1;fill:#000000;fill-opacity:1;fill-rule:nonzero;stroke:#000000;stroke-width:3.27047253;stroke-miterlimit:4;stroke-dasharray:none;stroke-dashoffset:0;stroke-opacity:1"
       id="path3160"
       d="M 795.94258,335.69382 C 792.75095,334.61614 789.53347,334.98117 786.30399,335.07696 C 780.34402,336.35149 774.57583,338.10164 768.59359,339.33792 C 762.27174,340.99421 755.78224,341.757 749.31774,342.60105 C 746.80515,343.39528 744.52993,344.80509 742.19093,346.01346 C 737.97005,348.33587 733.34085,349.13729 728.64283,349.7568 C 726.62455,349.83291 724.60843,349.95938 722.59042,350.04214 C 723.18175,350.91014 715.04555,351.45956 712.25268,351.68984 C 708.64071,351.47159 705.31314,350.29002 701.82141,349.51835 L 709.43845,315.27897 C 710.2061,315.38932 717.93201,316.40014 713.15252,315.99434 C 714.40447,315.60831 715.63459,315.14265 716.90837,314.83625 C 719.81598,314.57059 722.72272,314.17282 725.65252,314.22836 C 726.45432,314.19585 727.20823,314.7092 728.00206,314.13311 C 733.63155,311.96603 739.31154,309.74708 745.39534,309.31078 C 750.91161,308.88109 756.44076,308.48122 761.84508,307.20395 C 767.82736,305.55775 773.77973,303.68878 779.81429,302.23051 C 785.16418,301.11591 790.57101,300.45849 795.94258,299.54944 L 795.94258,335.69382 z " />
    <path
       style="opacity:1;fill:#000000;fill-opacity:1;fill-rule:nonzero;stroke:#000000;stroke-width:0.6236124;stroke-miterlimit:4;stroke-dasharray:none;stroke-dashoffset:0;stroke-opacity:1"
       id="path4155"
       d="M 898.234,378.81615 C 897.07982,377.96883 895.68549,378.07631 894.34059,377.91872 C 893.90284,378.21416 893.2067,378.57607 892.66291,378.89132 C 891.61122,379.54405 890.949,380.50575 890.17542,381.42075 C 889.72571,382.03326 889.60813,382.69636 889.31014,383.36643 C 889.00944,384.39737 889.02254,385.47383 888.9421,386.53218 C 889.15507,388.40635 889.70505,390.28398 890.23148,392.12184 C 891.14564,395.17154 891.20561,398.30924 891.45197,401.44131 C 891.4509,404.24698 891.38879,407.0513 891.4671,409.8603 C 891.44082,411.80967 891.61441,413.72148 891.90877,415.64287 C 891.99246,418.19047 892.09523,420.72905 892.31795,423.27111 C 892.33062,424.01398 892.5299,424.74383 892.63588,425.4802 L 872.87948,430.53368 C 872.72324,428.2336 872.53207,425.9382 872.75666,423.62817 C 872.85195,421.56982 872.88516,419.5295 872.47038,417.49281 C 872.1997,414.93975 872.14479,412.40129 872.31796,409.83742 C 872.39495,407.27041 872.39404,404.7122 872.21556,402.15015 C 872.18394,400.21085 872.03392,398.28552 871.59576,396.3814 C 870.78992,393.34773 869.92385,390.29867 869.58261,387.18596 C 869.44537,384.03652 869.64035,380.89383 870.56908,377.84443 C 871.62449,374.9416 872.86659,372.14866 875.10786,369.83078 C 877.40536,367.36588 879.79807,365.01066 882.79857,363.2657 C 886.52206,361.48205 890.22484,359.75661 894.54369,359.76287 C 897.65742,359.85826 900.70197,360.38119 903.79855,360.65954 L 898.234,378.81615 z " />
    <path
       style="opacity:1;fill:#000000;fill-opacity:1;fill-rule:nonzero;stroke:#000000;stroke-width:0.6236124;stroke-miterlimit:4;stroke-dasharray:none;stroke-dashoffset:0;stroke-opacity:1"
       id="path4157"
       d="M 899.65732,409.11753 C 897.68979,408.5088 895.69699,408.89267 893.70288,409.19996 C 892.25103,409.17719 891.34151,409.97855 890.37605,410.50723 L 882.55207,393.41188 C 885.04076,392.70598 887.53257,392.09296 890.11999,391.7663 C 893.30272,391.25771 896.49077,390.75321 899.65732,390.20537 L 899.65732,409.11753 z " />
    <path
       style="opacity:1;fill:#000000;fill-opacity:1;fill-rule:nonzero;stroke:#000000;stroke-width:0.6236124;stroke-miterlimit:4;stroke-dasharray:none;stroke-dashoffset:0;stroke-opacity:1"
       id="path4159"
       d="M 923.95252,394.11957 C 923.79449,395.95048 924.27993,398.78829 924.58128,400.97943 C 925.04931,404.14134 925.11302,407.32679 925.41219,410.50477 C 925.5626,412.29442 926.13604,414.03239 926.59518,415.77091 C 927.35077,418.28003 927.76034,420.78586 927.7115,423.38509 C 927.662,424.13966 927.55602,424.8891 927.47827,425.6411 L 907.69295,423.42722 C 907.73824,423.13957 907.77959,422.85139 907.82881,422.56429 C 907.79482,421.62168 907.78233,420.672 907.6145,419.74194 C 906.93411,416.86506 906.43833,413.94819 906.22307,411.00532 C 906.30236,408.53859 906.2186,406.09164 905.75602,403.65352 C 905.29512,401.45085 904.90458,399.27776 903.84166,397.24432 L 923.95252,394.11957 z " />
    <path
       style="opacity:1;fill:#000000;fill-opacity:1;fill-rule:nonzero;stroke:#000000;stroke-width:0.6236124;stroke-miterlimit:4;stroke-dasharray:none;stroke-dashoffset:0;stroke-opacity:1"
       id="path4161"
       d="M 912.36755,389.37338 C 914.4422,388.67166 916.43103,387.77622 918.43642,386.91942 C 920.04766,385.99664 921.79079,385.28774 923.56899,384.5739 C 925.97404,383.60809 928.56042,383.31253 931.12783,382.98162 C 934.05237,382.63026 936.88755,382.93745 939.76422,383.38053 C 941.90018,383.75882 943.83695,384.64975 945.78886,385.48923 C 947.70967,386.52354 948.32438,386.72549 949.06569,387.08124 C 949.60346,387.42633 950.25359,387.58652 950.84755,387.83916 L 942.31259,404.84641 C 939.7237,403.78415 944.50691,405.52809 940.28978,404.01642 C 937.92047,402.99979 938.35081,403.08111 936.72074,402.31189 C 933.98694,401.00708 937.63103,402.35395 934.89752,401.44169 C 934.3204,401.42181 933.73919,401.31512 933.16615,401.38207 C 932.29769,401.59483 931.35218,401.41409 930.57614,402.01655 C 929.31601,402.54528 928.03256,403.1394 926.71665,403.58636 C 925.38444,404.1904 923.84544,404.67709 922.87162,405.69421 L 912.36755,389.37338 z " />
    <path
       style="opacity:1;fill:#000000;fill-opacity:1;fill-rule:nonzero;stroke:#000000;stroke-width:0.6236124;stroke-miterlimit:4;stroke-dasharray:none;stroke-dashoffset:0;stroke-opacity:1"
       id="path4163"
       d="M 850.84701,409.46491 C 852.17837,410.68924 854.17759,411.84008 855.45806,412.71238 C 859.21616,415.20749 860.3511,418.57948 861.11465,422.57194 C 861.7744,426.91308 859.63286,430.23316 856.90083,433.48427 C 855.35141,435.16761 853.51403,436.56068 851.71109,437.98736 C 848.96048,439.83073 845.84411,440.37473 842.56886,440.6899 C 838.61388,440.97525 835.4193,439.32754 832.32106,437.31618 C 829.62786,435.19786 828.45576,432.29168 827.56239,429.21774 C 826.31281,426.11711 826.76078,423.07704 827.24155,419.91324 C 828.03621,417.6082 829.31172,416.12942 830.72436,414.18408 C 831.878,412.63779 833.45896,411.59547 835.26421,410.37935 C 837.2716,409.1958 839.55705,408.69527 841.83632,408.20558 C 844.25169,407.58498 846.71839,407.46408 849.20711,407.46777 C 850.91352,407.47741 852.45788,408.18422 854.03982,408.6504 L 845.75446,425.99393 C 846.35068,426.08698 846.93475,426.34441 847.54337,426.27311 C 847.33665,426.30152 847.12967,426.32843 846.92319,426.35833 C 845.87098,426.31266 844.23106,427.1273 846.21423,426.32756 C 847.22209,426.17002 847.63413,425.07752 846.44466,426.29155 C 846.80926,424.29315 845.68204,428.87025 846.59706,425.45624 C 846.62095,424.48256 846.38518,421.64347 846.77541,423.99826 C 846.26539,423.56543 845.67501,423.20274 845.24536,422.69978 C 844.55966,422.50888 843.26818,421.57742 841.27404,421.95982 C 840.90747,422.22642 840.56725,422.52794 840.17431,422.7596 C 840.72684,422.21226 841.32332,421.70078 841.8319,421.11759 C 841.5544,422.35602 841.21902,423.61775 841.30067,424.88062 C 841.8419,425.82118 842.43863,427.4512 843.59641,427.83085 C 841.86462,426.44872 842.3981,426.52018 840.34295,425.78573 L 850.84701,409.46491 z " />
  </g>
</svg>
