<?xml version="1.0" encoding="UTF-8" standalone="no"?>
<!-- Created with Inkscape (http://www.inkscape.org/) -->
<svg
   xmlns:dc="http://purl.org/dc/elements/1.1/"
   xmlns:cc="http://web.resource.org/cc/"
   xmlns:rdf="http://www.w3.org/1999/02/22-rdf-syntax-ns#"
   xmlns:svg="http://www.w3.org/2000/svg"
   xmlns="http://www.w3.org/2000/svg"
   xmlns:sodipodi="http://sodipodi.sourceforge.net/DTD/sodipodi-0.dtd"
   xmlns:inkscape="http://www.inkscape.org/namespaces/inkscape"
   width="60"
   height="60"
   id="svg2"
   sodipodi:version="0.32"
   inkscape:version="0.45"
   version="1.0"
   sodipodi:docname="roi_noir.svg"
   inkscape:output_extension="org.inkscape.output.svg.inkscape"
   sodipodi:docbase="e:\_chesshighlight\src\pieces"
   inkscape:export-filename="E:\_chesshighlight\src\pieces\roi_noir.png"
   inkscape:export-xdpi="90"
   inkscape:export-ydpi="90"
   sodipodi:modified="true">
  <defs
     id="defs4" />
  <sodipodi:namedview
     id="base"
     pagecolor="#ffffff"
     bordercolor="#666666"
     borderopacity="1.0"
     inkscape:pageopacity="0.0"
     inkscape:pageshadow="2"
     inkscape:zoom="5.4408105"
     inkscape:cx="21.479771"
     inkscape:cy="34.593891"
     inkscape:document-units="px"
     inkscape:current-layer="layer1"
     width="60px"
     height="60px"
     showgrid="true"
     gridempcolor="#3f3fff"
     gridempopacity="0.89803922"
     inkscape:object-bbox="false"
     objecttolerance="10000"
     inkscape:window-width="1152"
     inkscape:window-height="847"
     inkscape:window-x="0"
     inkscape:window-y="0" />
  <metadata
     id="metadata7">
    <rdf:RDF>
      <cc:Work
         rdf:about="">
        <dc:format>image/svg+xml</dc:format>
        <dc:type
           rdf:resource="http://purl.org/dc/dcmitype/StillImage" />
      </cc:Work>
    </rdf:RDF>
  </metadata>
  <g
     inkscape:label="Calque 1"
     inkscape:groupmode="layer"
     id="layer1">
    <rect
       style="opacity:0.82315111;fill:none;fill-opacity:1;fill-rule:nonzero;stroke:#2323c4;stroke-width:2.36965179;stroke-miterlimit:4;stroke-dasharray:none;stroke-dashoffset:0;stroke-opacity:1"
       id="rect2160"
       width="63.245571"
       height="63.245571"
       x="-1.5312774"
       y="-1.5462229" />
    <rect
       style="opacity:1;fill:#000000;fill-opacity:1;fill-rule:nonzero;stroke:#ffffff;stroke-width:1.5;stroke-miterlimit:4;stroke-dasharray:none;stroke-dashoffset:0;stroke-opacity:1"
       id="rect2218"
       width="0.59907597"
       height="0.11610015"
       x="48"
       y="51"
       ry="0.058050074" />
    <path
       sodipodi:type="arc"
       style="opacity:1;fill:#000000;fill-opacity:1;fill-rule:nonzero;stroke:#ffffff;stroke-width:0.80727333;stroke-miterlimit:4;stroke-dasharray:none;stroke-dashoffset:0;stroke-opacity:1"
       id="path4325"
       sodipodi:cx="8.1789284"
       sodipodi:cy="5.0909023"
       sodipodi:rx="4.8705978"
       sodipodi:ry="1.7001144"
       d="M 13.049526 5.0909023 A 4.8705978 1.7001144 0 1 1  3.3083305,5.0909023 A 4.8705978 1.7001144 0 1 1  13.049526 5.0909023 z"
       transform="matrix(1.6228332,0,0,2.1274895,16.689924,3.6691589)" />
    <path
       style="fill:#000000;fill-opacity:1;fill-rule:nonzero;stroke:#ffffff;stroke-width:1.49966633;stroke-miterlimit:4;stroke-dasharray:none;stroke-dashoffset:0;stroke-opacity:1"
       d="M 24.278577,26.760711 L 35.746134,26.760711 C 35.778287,26.760711 35.804171,26.786651 35.804171,26.818875 L 39.803245,51.173559 C 39.803245,51.205782 39.777361,51.231722 39.745208,51.231722 L 20.279503,51.231722 C 20.24735,51.231722 20.221466,51.205782 20.221466,51.173559 L 24.22054,26.818875 C 24.22054,26.786651 24.246424,26.760711 24.278577,26.760711 z "
       id="rect2220"
       sodipodi:nodetypes="ccccccccc" />
    <rect
       style="opacity:1;fill:#000000;fill-opacity:1;fill-rule:nonzero;stroke:#ffffff;stroke-width:1.5;stroke-miterlimit:4;stroke-dasharray:none;stroke-dashoffset:0;stroke-opacity:1"
       id="rect2216"
       width="27.733295"
       height="4.733294"
       x="16.173862"
       y="50.919952"
       ry="0.38928875" />
    <path
       style="fill:#000000;fill-opacity:1;fill-rule:nonzero;stroke:#ffffff;stroke-width:1.5;stroke-miterlimit:4;stroke-dasharray:none;stroke-dashoffset:0;stroke-opacity:1"
       d="M 24.304489,24.582738 L 35.980646,24.582738 C 36.013382,24.582738 35.120756,24.108087 35.120756,24.089254 L 40.111556,13.818848 C 40.111556,13.800014 40.0852,13.784853 40.052463,13.784853 L 20.232672,13.784853 C 20.199935,13.784853 20.173579,13.800014 20.173579,13.818848 L 24.796786,24.251292 C 24.796786,24.270125 24.271753,24.582738 24.304489,24.582738 z "
       id="path5296"
       sodipodi:nodetypes="ccccccccc" />
    <rect
       style="opacity:1;fill:#000000;fill-opacity:1;fill-rule:nonzero;stroke:#ffffff;stroke-width:1.57027221;stroke-miterlimit:4;stroke-dasharray:none;stroke-dashoffset:0;stroke-opacity:1"
       id="rect2222"
       width="17.51078"
       height="2.7543166"
       x="21.152727"
       y="24.379526"
       ry="0.04068657" />
    <path
       id="rect5159"
       style="fill:#000000;fill-opacity:1;fill-rule:nonzero;stroke:#ffffff;stroke-width:1.5;stroke-miterlimit:4;stroke-dasharray:none;stroke-dashoffset:0;stroke-opacity:1"
       d="M 31.081053,6.4043881 C 32.341439,6.5549946 33.262865,6.6676156 34.076017,7.4578368 L 34.076017,2.8035265 C 33.103783,3.618592 32.448485,3.6825759 31.033077,4.002477 C 31.157729,2.7111129 31.314754,1.7940837 32.104978,0.98093173 L 27.450667,0.98093173 C 28.265733,1.9531659 28.329717,2.6084647 28.659845,4.0191793 C 27.37871,3.8898371 26.488095,3.7328113 25.674943,2.9425892 L 25.674943,7.5968999 C 26.647177,6.7818337 27.302476,6.7178496 28.721026,6.3946751 C 28.399251,7.8118289 28.335267,8.4671277 27.520201,9.439361 L 32.17451,9.439361 C 31.38429,8.6262094 31.231661,7.664775 31.081053,6.4043881 z "
       sodipodi:nodetypes="ccccccccccccc" />
    <rect
       style="opacity:1;fill:#eccccb;fill-opacity:1;fill-rule:nonzero;stroke:#000000;stroke-width:0.49071744;stroke-miterlimit:4;stroke-dasharray:none;stroke-dashoffset:0;stroke-opacity:1"
       id="rect3137"
       width="10.244885"
       height="7.9227195"
       x="21.369438"
       y="-18.022293"
       ry="0"
       rx="0"
       transform="matrix(0.9999767,-6.8332417e-3,6.8571404e-3,0.9999765,0,0)" />
    <rect
       style="opacity:1;fill:#eccccb;fill-opacity:1;fill-rule:nonzero;stroke:#000000;stroke-width:0.49071744;stroke-miterlimit:4;stroke-dasharray:none;stroke-dashoffset:0;stroke-opacity:1"
       id="rect3139"
       width="10.244885"
       height="7.9227195"
       x="25.348774"
       y="-14.99503"
       ry="0"
       rx="0"
       transform="matrix(0.9999767,-6.8332417e-3,6.8571404e-3,0.9999765,0,0)" />
    <path
       transform="matrix(0.9999767,-6.8332408e-3,6.8571401e-3,0.9999765,0,0)"
       style="fill:#eccccb;fill-opacity:1;fill-rule:nonzero;stroke:#000000;stroke-width:0.49071744;stroke-miterlimit:4;stroke-dashoffset:0;stroke-opacity:1"
       d="M 9.3697214,-18.104292 L 10.840683,-13.193027 C 13.660441,-12.688131 22.310998,-16.817481 19.299957,-11.678338 C 21.388033,-8.2395457 19.423323,-9.2360313 9.3697214,-10.181572 L 9.3697214,-18.104292 z "
       id="rect2165"
       sodipodi:nodetypes="ccccc" />
  </g>
</svg>
